Coordinates
version=1
nRows=17
nColumns=24
inDegrees=yes

Units are S.I. units (second, meters, Newtons, ...)
Angles are in degrees.

endheader
time	pelvis_tilt	pelvis_list	pelvis_rotation	pelvis_tx	pelvis_ty	pelvis_tz	hip_flexion_r	hip_adduction_r	hip_rotation_r	knee_angle_r	ankle_angle_r	subtalar_angle_r	mtp_angle_r	hip_flexion_l	hip_adduction_l	hip_rotation_l	knee_angle_l	ankle_angle_l	subtalar_angle_l	mtp_angle_l	lumbar_extension	lumbar_bending	lumbar_rotation
      0.77083333	     -6.31811876	      1.86098725	      3.13407431	     -0.35124753	      1.06674768	      0.30950938	     15.96700680	      0.84622915	      0.07416115	    -18.18023414	      9.81733504	     -7.06876676	      5.50225533	     21.49957735	     -2.13240401	     -4.75938703	    -67.75408896	     10.99494958	      3.01030059	      3.82719263	     -6.90240727	      2.54034455	      1.08275766
      0.77500000	     -6.27519533	      1.94306398	      3.03613911	     -0.34598678	      1.06752359	      0.30989185	     15.46051991	      0.80188709	      0.10853604	    -17.85976121	      9.92578197	     -6.94998269	      5.48063765	     21.92968654	     -2.07573428	     -4.93660007	    -67.29655592	     11.28449673	      3.25721550	      3.82661405	     -6.91196988	      2.39246053	      1.23276223
      0.77916667	     -6.24438678	      2.02081199	      2.93513822	     -0.34073772	      1.06822819	      0.31026606	     14.96892759	      0.76075458	      0.14915815	    -17.54014499	     10.02816154	     -6.83603897	      5.46083863	     22.36623340	     -2.02422892	     -5.11808121	    -66.80320901	     11.56003193	      3.49258908	      3.82825570	     -6.90675916	      2.24489631	      1.38229881
      0.78333333	     -6.19884174	      2.08789754	      2.82623987	     -0.33548700	      1.06891047	      0.31063780	     14.46178580	      0.73171609	      0.19007339	    -17.21956314	     10.13937433	     -6.73313571	      5.43694380	     22.77560483	     -1.99098155	     -5.30965364	    -66.26912900	     11.82255163	      3.75784768	      3.83111806	     -6.91353771	      2.12296747	      1.56900470
      0.78750000	     -6.15257498	      2.15830739	      2.71057791	     -0.33025835	      1.06956940	      0.31102222	     13.95387864	      0.70030872	      0.24456883	    -16.89111203	     10.23513509	     -6.63805023	      5.41317109	     23.17321166	     -1.95582860	     -5.50741009	    -65.69084833	     12.06552198	      4.01575622	      3.83606439	     -6.92544133	      1.98684506	      1.74150811
      0.79166667	     -6.10762218	      2.21958419	      2.60137924	     -0.32502938	      1.07018216	      0.31138492	     13.44179150	      0.67591404	      0.30075910	    -16.55302517	     10.34309903	     -6.54540025	      5.37338147	     23.56671361	     -1.92818651	     -5.69667896	    -65.08143795	     12.28594981	      4.26765719	      3.84263296	     -6.94695894	      1.85080192	      1.98001755
      0.79583333	     -6.08579553	      2.31370850	      2.47271868	     -0.31979905	      1.07073368	      0.31176828	     12.96816623	      0.61553284	      0.36723873	    -16.24170310	     10.42900907	     -6.45165923	      5.35508874	     23.96095455	     -1.86895716	     -5.91418058	    -64.41048010	     12.48385150	      4.50863242	      3.85025771	     -6.92992837	      1.69346002	      2.07999105
      0.80000000	     -6.04469804	      2.38415202	      2.34915638	     -0.31457812	      1.07126341	      0.31212982	     12.46938160	      0.57842565	      0.42725437	    -15.91870365	     10.53349377	     -6.35933390	      5.33490162	     24.32962738	     -1.83579071	     -6.12007767	    -63.71316320	     12.67564380	      4.77871177	      3.86021401	     -6.93583750	      1.56688242	      2.24429752
      0.80416667	     -6.01798082	      2.44871317	      2.22471036	     -0.30937534	      1.07171028	      0.31248396	     11.98863853	      0.54598085	      0.49337282	    -15.59774413	     10.63677024	     -6.26854911	      5.31426082	     24.70843164	     -1.80873601	     -6.32392263	    -62.98775357	     12.84686286	      5.03807425	      3.87141196	     -6.93256810	      1.43748703	      2.41681985
      0.80833333	     -5.97186523	      2.50109898	      2.10342051	     -0.30418165	      1.07215616	      0.31282146	     11.48168202	      0.52518224	      0.56160668	    -15.26290140	     10.74241122	     -6.18383699	      5.27721274	     25.05698607	     -1.79129991	     -6.51483271	    -62.22821310	     13.00189740	      5.28310443	      3.88955479	     -6.95949898	      1.31297078	      2.66369021
      0.81250000	     -5.93883394	      2.57183840	      1.97670729	     -0.29899259	      1.07254301	      0.31315784	     10.99762746	      0.48143480	      0.62774411	    -14.94723150	     10.85593673	     -6.09460285	      5.24878594	     25.40302140	     -1.75450274	     -6.71551492	    -61.42233341	     13.12750155	      5.51629149	      3.90612314	     -6.96295292	      1.17657189	      2.81378287
      0.81666667	     -5.91836582	      2.64068700	      1.84853877	     -0.29380518	      1.07286782	      0.31347862	     10.53264757	      0.43653637	      0.69055676	    -14.64180609	     10.94586746	     -6.00675681	      5.23412746	     25.74944578	     -1.71578137	     -6.90994630	    -60.57867587	     13.23053723	      5.73629896	      3.91719879	     -6.94896508	      1.05952735	      2.91262036
      0.82083333	     -5.87454563	      2.69164600	      1.72805819	     -0.28862683	      1.07318067	      0.31378258	     10.03542047	      0.40937645	      0.75104609	    -14.32137141	     11.07644852	     -5.91516743	      5.20803498	     26.06522413	     -1.69441795	     -7.08941932	    -59.71208437	     13.33067990	      5.94848685	      3.93584692	     -6.97294902	      0.93953230	      3.12402889
      0.82500000	     -5.84233093	      2.74201472	      1.60622976	     -0.28346674	      1.07342550	      0.31406435	      9.55784309	      0.37896311	      0.81038173	    -14.01304453	     11.18710716	     -5.82784046	      5.18283790	     26.38231227	     -1.66855545	     -7.26089623	    -58.81096629	     13.40450302	      6.13536788	      3.95399446	     -6.98209634	      0.83495435	      3.27882134
      0.82916667	     -5.83225969	      2.80221708	      1.48563623	     -0.27830227	      1.07360355	      0.31432765	      9.11011972	      0.33353233	      0.86651828	    -13.71837433	     11.28529065	     -5.73727587	      5.16803941	     26.70650707	     -1.62601993	     -7.42489004	    -57.86614606	     13.44948981	      6.28993778	      3.96527167	     -6.96255130	      0.72760942	      3.37650437
      0.83333333	     -5.79912657	      2.85779688	      1.36681484	     -0.27315396	      1.07376676	      0.31458917	      8.63801083	      0.29245218	      0.91810904	    -13.42341221	     11.40913797	     -5.64009098	      5.15221224	     26.99550008	     -1.58673191	     -7.57968365	    -56.89316718	     13.48252200	      6.42412253	      3.97771766	     -6.97636466	      0.61874732	      3.51170738
      0.83750000	     -5.76583189	      2.89629927	      1.25465969	     -0.26800951	      1.07389212	      0.31481917	      8.16428872	      0.26626043	      0.96605761	    -13.12453920	     11.52504378	     -5.54400015	      5.13711324	     27.27530845	     -1.55832892	     -7.71464633	    -55.89307448	     13.49934215	      6.52448259	      3.98877381	     -6.99296477	      0.53050169	      3.63861585
